<?xml version="1.0" encoding="UTF-8"?>
<svg version="1.1" xmlns="http://www.w3.org/2000/svg" width="128" height="128">
<path d="M0 0 C1.87109375 0.2890625 1.87109375 0.2890625 4 1 C7.2673284 6.34653739 8.89421853 11.715625 10.38671875 17.77734375 C10.79096192 19.95548077 10.79096192 19.95548077 12 21 C12.19634033 20.47043701 12.39268066 19.94087402 12.5949707 19.39526367 C13.49237821 16.98943096 14.40227666 14.58851166 15.3125 12.1875 C15.7755957 10.93743164 15.7755957 10.93743164 16.24804688 9.66210938 C16.55419922 8.85966797 16.86035156 8.05722656 17.17578125 7.23046875 C17.59210815 6.12288208 17.59210815 6.12288208 18.0168457 4.99291992 C19.06563883 2.86694568 20.24041906 1.56865231 22 0 C24.3046875 0.47265625 24.3046875 0.47265625 27 2 C28.47824363 4.67220963 29.27470345 7.5142737 30.125 10.4375 C30.37652832 11.24993164 30.62805664 12.06236328 30.88720703 12.89941406 C31.61158303 15.2607953 32.30815402 17.62892126 33 20 C33.34546875 21.13050781 33.6909375 22.26101562 34.046875 23.42578125 C35.40290369 28.05035079 36.39493576 32.12912558 36 37 C34.68 37.66 33.36 38.32 32 39 C28.04143272 35.74000341 26.89536771 32.33495387 25.75 27.5 C25.57726562 26.83613281 25.40453125 26.17226562 25.2265625 25.48828125 C24.39704283 22.18995306 24 19.42582602 24 16 C23.34 16 22.68 16 22 16 C21.89558594 16.83015625 21.79117188 17.6603125 21.68359375 18.515625 C20.90133617 22.50290361 19.59734414 26.00306635 18.0625 29.75 C17.79759766 30.42160156 17.53269531 31.09320313 17.25976562 31.78515625 C16.10271812 34.65049971 15.20706617 36.79293383 13 39 C10.5 38.8125 10.5 38.8125 8 38 C5.64411454 34.46617181 4.88391869 31.0074602 3.9375 26.9375 C2.84984632 21.83876814 2.84984632 21.83876814 1 17 C0.67725098 17.95890137 0.35450195 18.91780273 0.02197266 19.90576172 C-1.17601377 23.45987654 -2.38174448 27.01132298 -3.58984375 30.56201172 C-4.11182186 32.09970471 -4.63169152 33.63811509 -5.14941406 35.17724609 C-5.89356356 37.38831098 -6.64523547 39.59669254 -7.3984375 41.8046875 C-7.6287265 42.49432587 -7.8590155 43.18396423 -8.09628296 43.89450073 C-9.09891702 46.81256823 -9.78843844 48.78843844 -12 51 C-14.375 51.125 -14.375 51.125 -17 50 C-20.49745331 43.89007651 -22.6534565 37.51154134 -24.75 30.8125 C-25.06582031 29.84119141 -25.38164063 28.86988281 -25.70703125 27.86914062 C-26.00480469 26.92876953 -26.30257812 25.98839844 -26.609375 25.01953125 C-26.87717773 24.17495361 -27.14498047 23.33037598 -27.42089844 22.46020508 C-28.03675056 19.84387209 -28.24543699 17.67690318 -28 15 C-27.34 14.34 -26.68 13.68 -26 13 C-24.00390625 13.12890625 -24.00390625 13.12890625 -22 14 C-20.83984375 15.71484375 -20.83984375 15.71484375 -19.9375 17.9375 C-19.61007813 18.74058594 -19.28265625 19.54367188 -18.9453125 20.37109375 C-17.68196507 23.88445251 -16.60722674 27.43305629 -15.61328125 31.03125 C-15.1729154 32.98202048 -15.1729154 32.98202048 -14 34 C-13.71801758 33.18321777 -13.43603516 32.36643555 -13.14550781 31.52490234 C-12.08620515 28.46975549 -11.01927878 25.41740707 -9.94726562 22.36669922 C-9.48655263 21.05069902 -9.02881303 19.73365368 -8.57421875 18.41552734 C-7.91686302 16.51121392 -7.24758718 14.6110287 -6.578125 12.7109375 C-6.18012695 11.56931152 -5.78212891 10.42768555 -5.37207031 9.25146484 C-3.90302182 5.77018588 -2.18526317 3.06667973 0 0 Z M0 4 C0 5.32 0 6.64 0 8 C1.32 7.67 2.64 7.34 4 7 C3.34 6.01 2.68 5.02 2 4 C1.34 4 0.68 4 0 4 Z M-15 43 C-15.33 44.32 -15.66 45.64 -16 47 C-14.68 47 -13.36 47 -12 47 C-12.33 45.68 -12.66 44.36 -13 43 C-13.66 43 -14.32 43 -15 43 Z " fill="#46A7EC" transform="translate(59,38)"/>
<path d="M0 0 C14.35408828 10.20850322 24.33672616 24.49835617 27.81640625 41.96875 C30.09768242 58.57479634 26.37004311 73.9792785 17.3984375 88.0234375 C15.46825014 90.54141855 13.44603769 92.8356793 11.25 95.125 C10.44949219 95.97707031 9.64898437 96.82914062 8.82421875 97.70703125 C-3.5222185 109.90714035 -19.9172747 115.67741754 -37.17773438 115.61743164 C-55.20072647 114.97231785 -70.57367701 105.90835376 -82.75 93.125 C-85.07141431 90.26350155 -86.97466117 87.34982432 -88.75 84.125 C-89.19859375 83.32320313 -89.6471875 82.52140625 -90.109375 81.6953125 C-97.33826853 68.04546059 -100.13303499 52.18354597 -95.75 37.125 C-89.91051868 19.07968554 -80.62930325 6.1754035 -64.08984375 -3.41796875 C-42.82676369 -13.84104721 -20.15859776 -12.92217805 0 0 Z M-82.88671875 15.63671875 C-93.12556419 29.42917649 -96.41679946 45.29938053 -94.75 62.125 C-91.88927677 78.27334917 -83.0018467 92.40794378 -69.6875 102 C-55.43931718 111.35242817 -40.0506187 115.12886407 -23.125 112.125 C-6.36115617 108.20309965 7.36671575 98.98315869 16.82421875 84.4921875 C24.94992227 71.00129343 28.14336043 56.26015516 25.0625 40.6875 C20.71884609 23.41071442 11.28959387 9.66279318 -3.75 0.125 C-7.32883171 -1.82846667 -10.93864946 -3.43138946 -14.75 -4.875 C-15.57628906 -5.1946875 -16.40257813 -5.514375 -17.25390625 -5.84375 C-41.86012628 -13.9581676 -66.75178731 -3.3299374 -82.88671875 15.63671875 Z " fill="#60A3D0" transform="translate(99.75,10.875)"/>
<path d="M0 0 C0 0.33 0 0.66 0 1 C-0.88969482 1.01401855 -0.88969482 1.01401855 -1.79736328 1.02832031 C-23.14110254 1.44965985 -40.47122723 4.55409479 -56.26953125 20.08203125 C-68.00401336 32.62231471 -71.6678913 47.39834681 -73 64 C-74.485 64.495 -74.485 64.495 -76 65 C-75.95845484 49.37902032 -72.09245115 35.89299952 -63 23 C-62.57460938 22.3915625 -62.14921875 21.783125 -61.7109375 21.15625 C-47.75861619 3.20589509 -21.77587648 -5.7657167 0 0 Z " fill="#61A6D9" transform="translate(78,2)"/>
<path d="M0 0 C0.33 0 0.66 0 1 0 C1.17015625 0.96679688 1.3403125 1.93359375 1.515625 2.9296875 C4.83351378 21.0624984 12.12629829 36.00282382 27.49609375 46.96875 C27.99238281 47.3090625 28.48867188 47.649375 29 48 C28.34 48.66 27.68 49.32 27 50 C13.00846056 39.47767424 2.32743809 26.6751069 -1 9 C-1.2429957 6.23535081 -1.20249239 3.78427034 -1 1 C-0.67 0.67 -0.34 0.34 0 0 Z " fill="#629BC3" transform="translate(4,66)"/>
<path d="M0 0 C0.66 0 1.32 0 2 0 C2 1.98 2 3.96 2 6 C2.66 6 3.32 6 4 6 C4 7.98 4 9.96 4 12 C5.32 11.34 6.64 10.68 8 10 C7.67 7.03 7.34 4.06 7 1 C10.81035094 6.71552641 12.55570361 14.1463221 12 21 C10.02 21.99 10.02 21.99 8 23 C4.04143272 19.74000341 2.89536771 16.33495387 1.75 11.5 C1.57726562 10.83613281 1.40453125 10.17226562 1.2265625 9.48828125 C0.39704283 6.18995306 0 3.42582602 0 0 Z " fill="#4FA3DD" transform="translate(83,54)"/>
<path d="M0 0 C1.32 0 2.64 0 4 0 C4.8089913 7.1191234 1.93279777 12.62116486 -1 19 C-2.98 18.34 -4.96 17.68 -7 17 C-6.625 15.0625 -6.625 15.0625 -6 13 C-5.34 12.67 -4.68 12.34 -4 12 C-2.86649466 9.98330173 -2.86649466 9.98330173 -2 8 C-1.01 8.33 -0.02 8.66 1 9 C0.67 6.03 0.34 3.06 0 0 Z " fill="#42A9F4" transform="translate(51,59)"/>
<path d="M0 0 C1.10802511 3.32407533 0.92524151 3.97699033 -0.14453125 7.16015625 C-0.54188477 8.3502832 -0.54188477 8.3502832 -0.94726562 9.56445312 C-1.23279297 10.38880859 -1.51832031 11.21316406 -1.8125 12.0625 C-2.08642578 12.89072266 -2.36035156 13.71894531 -2.64257812 14.57226562 C-4.73287408 20.73287408 -4.73287408 20.73287408 -7 23 C-9.4375 23 -9.4375 23 -12 22 C-15 17.13793103 -15 17.13793103 -15 14 C-12.69 14 -10.38 14 -8 14 C-8.66 14.66 -9.32 15.32 -10 16 C-10 16.99 -10 17.98 -10 19 C-9.34 19 -8.68 19 -8 19 C-4.74356361 12.83603112 -2.27598634 6.58583281 0 0 Z " fill="#58A4D9" transform="translate(54,66)"/>
<path d="M0 0 C12.79264169 5.93281933 12.79264169 5.93281933 16 11 C12.47004213 11 11.52491483 10.22490231 8.625 8.3125 C1.39169331 3.83018661 -6.58454524 0.44664934 -15 -1 C-9.80848761 -4.24919136 -5.38114427 -2.02208635 0 0 Z " fill="#5A99C1" transform="translate(89,5)"/>
<path d="M0 0 C2.5140725 0.36367087 3.67221356 0.563992 5.23046875 2.63671875 C7.15680175 6.76457518 8.54066798 10.40667977 9 15 C6 13 6 13 5.4375 10.4375 C5.293125 9.633125 5.14875 8.82875 5 8 C4.34 7.67 3.68 7.34 3 7 C2.67 6.34 2.34 5.68 2 5 C-0.12364481 4.77390663 -0.12364481 4.77390663 -1.625 6.5 C-2.07875 6.995 -2.5325 7.49 -3 8 C-3.33 7.34 -3.66 6.68 -4 6 C-2.68 4.02 -1.36 2.04 0 0 Z " fill="#4CA3DB" transform="translate(59,38)"/>
<path d="M0 0 C0.33 0 0.66 0 1 0 C1.28571429 8.57142857 1.28571429 8.57142857 -1 12 C-0.34 12.33 0.32 12.66 1 13 C0.01 13.33 -0.98 13.66 -2 14 C-2 16.64 -2 19.28 -2 22 C-2.99 22 -3.98 22 -5 22 C-5.66 23.32 -6.32 24.64 -7 26 C-8 24 -8 24 -7.37915039 21.56982422 C-7.03875732 20.5748291 -6.69836426 19.57983398 -6.34765625 18.5546875 C-5.98349609 17.47832031 -5.61933594 16.40195312 -5.24414062 15.29296875 C-4.85419922 14.16503906 -4.46425781 13.03710938 -4.0625 11.875 C-3.67642578 10.73933594 -3.29035156 9.60367188 -2.89257812 8.43359375 C-1.93502821 5.62005203 -0.97057271 2.80907052 0 0 Z " fill="#4FA7E5" transform="translate(54,46)"/>
<path d="M0 0 C2.4375 0.6875 2.4375 0.6875 5 2 C5.8125 4.625 5.8125 4.625 6 7 C2.56484998 7.62457273 -0.49064814 8 -4 8 C-3.50168276 4.31245243 -2.89932357 2.39509338 0 0 Z " fill="#4AA6E5" transform="translate(81,38)"/>
<path d="M0 0 C-0.83402344 0.30292969 -1.66804688 0.60585937 -2.52734375 0.91796875 C-9.36296664 3.46273099 -15.76154384 6.21179019 -22 10 C-22.66 9.34 -23.32 8.68 -24 8 C-5.72897338 -3.66235741 -5.72897338 -3.66235741 0 0 Z " fill="#66A6D2" transform="translate(51,5)"/>
<path d="M0 0 C0.66 0 1.32 0 2 0 C2.2144997 8.27015524 2.07422976 15.96235969 0 24 C-0.66 24 -1.32 24 -2 24 C-1.4017071 15.99305886 -0.7529365 7.99394289 0 0 Z " fill="#58ABE2" transform="translate(126,56)"/>
<path d="M0 0 C1.67542976 0.28604898 3.34385343 0.61781233 5 1 C4.505 2.134375 4.01 3.26875 3.5 4.4375 C1.93532383 7.50937064 1.93532383 7.50937064 2 9 C1.67449498 10.66821323 1.34153937 12.33499557 1 14 C-0.32 13.67 -1.64 13.34 -3 13 C-2.69240822 11.02006459 -2.3787932 9.04106401 -2.0625 7.0625 C-1.88847656 5.96035156 -1.71445312 4.85820313 -1.53515625 3.72265625 C-1 1 -1 1 0 0 Z " fill="#3BACF5" transform="translate(56,45)"/>
<path d="M0 0 C0.66 0 1.32 0 2 0 C1.67 5.94 1.34 11.88 1 18 C0.01 18.33 -0.98 18.66 -2 19 C-1.85913398 16.39547729 -1.71251536 13.79149803 -1.5625 11.1875 C-1.50352539 10.08051758 -1.50352539 10.08051758 -1.44335938 8.95117188 C-1.25618965 5.76928658 -1.01279207 3.03837622 0 0 Z " fill="#60ABD5" transform="translate(4,48)"/>
<path d="M0 0 C0.33 0 0.66 0 1 0 C1.50604924 2.39469729 2.00499517 4.79051717 2.5 7.1875 C2.64308594 7.86103516 2.78617187 8.53457031 2.93359375 9.22851562 C3.68069842 12.87509793 4.17352282 16.27648957 4 20 C2 19 2 19 1.1484375 16.99609375 C-0.52632809 11.45583385 -1.42105873 6.78955758 -1 1 C-0.67 0.67 -0.34 0.34 0 0 Z " fill="#60A2CD" transform="translate(4,66)"/>
<path d="M0 0 C0.66 0.33 1.32 0.66 2 1 C0.14506608 6.71937959 -1.93103891 12.35555275 -4 18 C-4.66 17.67 -5.32 17.34 -6 17 C-4.89061647 10.69403048 -3.06802099 5.62470514 0 0 Z " fill="#689EC8" transform="translate(11,31)"/>
<path d="M0 0 C0.99 0.33 1.98 0.66 3 1 C3 1.66 3 2.32 3 3 C2.34 3 1.68 3 1 3 C1 3.66 1 4.32 1 5 C1.66 5 2.32 5 3 5 C3 7.31 3 9.62 3 12 C1.35 12 -0.3 12 -2 12 C-1.34 11.67 -0.68 11.34 0 11 C0 8.69 0 6.38 0 4 C-0.66 4 -1.32 4 -2 4 C-2 3.01 -2 2.02 -2 1 C-1.34 0.67 -0.68 0.34 0 0 Z " fill="#3AABF9" transform="translate(67,61)"/>
<path d="M0 0 C0.66 0 1.32 0 2 0 C3.72264494 3.29549466 5.29445932 6.33118845 6 10 C5.01 10 4.02 10 3 10 C3 9.34 3 8.68 3 8 C2.34 8.66 1.68 9.32 1 10 C1 9.01 1 8.02 1 7 C0.01 6.67 -0.98 6.34 -2 6 C-1.34 4.02 -0.68 2.04 0 0 Z " fill="#3FA8F6" transform="translate(62,46)"/>
<path d="M0 0 C0.66 0.33 1.32 0.66 2 1 C2.6328125 3.28515625 2.6328125 3.28515625 3.125 6.0625 C3.29257813 6.98160156 3.46015625 7.90070312 3.6328125 8.84765625 C3.75398438 9.55792969 3.87515625 10.26820312 4 11 C2.35 11.33 0.7 11.66 -1 12 C-1 10.02 -1 8.04 -1 6 C-0.34 6 0.32 6 1 6 C0.67 4.02 0.34 2.04 0 0 Z " fill="#40A8F4" transform="translate(88,54)"/>
<path d="M0 0 C5.63689034 1.32632714 7.93185683 5.46631765 11 10 C10.01 10 9.02 10 8 10 C6.72445185 8.53311963 5.45118883 7.06023134 4.28125 5.5078125 C2.88527155 3.72500021 2.88527155 3.72500021 0 2 C0 1.34 0 0.68 0 0 Z " fill="#569CCF" transform="translate(104,16)"/>
<path d="M0 0 C0 0.33 0 0.66 0 1 C-6.06815522 2.22899346 -11.79895188 3.27560214 -18 3 C-17.67 2.34 -17.34 1.68 -17 1 C-11.20563241 -0.8981549 -5.92361979 -1.28774343 0 0 Z " fill="#5AB1E0" transform="translate(67,1)"/>
<path d="M0 0 C-2.34171739 2.34171739 -3.23060454 2.391923 -6.4375 2.75 C-7.21996094 2.84796875 -8.00242187 2.9459375 -8.80859375 3.046875 C-11 3 -11 3 -14 1 C-12.41913952 0.63495397 -10.83516093 0.28339494 -9.25 -0.0625 C-8.36828125 -0.25972656 -7.4865625 -0.45695312 -6.578125 -0.66015625 C-4.01320972 -0.99825872 -2.42908361 -0.81158635 0 0 Z " fill="#5BA0C5" transform="translate(84,122)"/>
<path d="M0 0 C0.33 0.66 0.66 1.32 1 2 C0.01 3.32 -0.98 4.64 -2 6 C-4.4375 5.625 -4.4375 5.625 -7 5 C-7.33 4.34 -7.66 3.68 -8 3 C-5.525 3.495 -5.525 3.495 -3 4 C-3 3.01 -3 2.02 -3 1 C-2.01 0.67 -1.02 0.34 0 0 Z " fill="#54A1D7" transform="translate(74,71)"/>
<path d="M0 0 C0.66 0 1.32 0 2 0 C2.2226746 1.43534841 2.42761906 2.87345525 2.625 4.3125 C2.74101563 5.11300781 2.85703125 5.91351563 2.9765625 6.73828125 C3 9 3 9 1 12 C0.67 8.04 0.34 4.08 0 0 Z " fill="#5FA7D2" transform="translate(124,47)"/>
<path d="M0 0 C0.79921875 0.29648437 1.5984375 0.59296875 2.421875 0.8984375 C3.02515625 1.13820313 3.6284375 1.37796875 4.25 1.625 C4.25 1.955 4.25 2.285 4.25 2.625 C-0.12934119 2.10541715 -4.43803391 1.56824258 -8.75 0.625 C-5.33677284 -1.55132374 -3.73452846 -1.42790794 0 0 Z " fill="#5F9FCA" transform="translate(82.75,3.375)"/>
<path d="M0 0 C0.66 0.33 1.32 0.66 2 1 C0.79618552 3.49361571 -0.45428722 5.68143083 -2 8 C-2.66 8 -3.32 8 -4 8 C-3.40072174 4.64404172 -2.15377564 2.62198774 0 0 Z " fill="#57B5DB" transform="translate(16,24)"/>
<path d="M0 0 C0 1.98 0 3.96 0 6 C-1.32 6 -2.64 6 -4 6 C-4 4.35 -4 2.7 -4 1 C-1 0 -1 0 0 0 Z " fill="#40A8F6" transform="translate(93,69)"/>
<path d="M0 0 C0.66 0 1.32 0 2 0 C2.33 2.31 2.66 4.62 3 7 C2.01 7.33 1.02 7.66 0 8 C0 5.36 0 2.72 0 0 Z " fill="#3FBCF1" transform="translate(2,59)"/>
<path d="M0 0 C0.33 0.99 0.66 1.98 1 3 C-1.97 5.475 -1.97 5.475 -5 8 C-5.66 7.34 -6.32 6.68 -7 6 C-4.69 4.02 -2.38 2.04 0 0 Z " fill="#62A0C6" transform="translate(110,103)"/>
<path d="M0 0 C1.42944945 2.35438733 2.08661261 3.48032433 1.625 6.25 C1.41875 6.8275 1.2125 7.405 1 8 C0.01 7.67 -0.98 7.34 -2 7 C-1.125 2.25 -1.125 2.25 0 0 Z " fill="#4BA4E2" transform="translate(68,54)"/>
<path d="M0 0 C2.31 0 4.62 0 7 0 C5.02 0.99 5.02 0.99 3 2 C3 2.99 3 3.98 3 5 C2.34 5 1.68 5 1 5 C0.67 3.35 0.34 1.7 0 0 Z " fill="#4EA9E1" transform="translate(39,80)"/>
<path d="M0 0 C1.32 0.33 2.64 0.66 4 1 C3.42655063 3.86724686 3.1385485 4.8614515 1 7 C0.67 4.69 0.34 2.38 0 0 Z " fill="#3FA9F6" transform="translate(35,61)"/>
</svg>
